<svg width="110" height="55" viewBox="0 0 110 55" fill="none" xmlns="http://www.w3.org/2000/svg">
    <mask id="mask0_0_1" style="mask-type:luminance" maskUnits="userSpaceOnUse" x="0" y="0"
        width="55" height="55">
        <path fill-rule="evenodd" clip-rule="evenodd"
            d="M0.47998 27.36C0.47998 30.8899 1.17525 34.3853 2.5261 37.6465C3.87694 40.9077 5.85691 43.871 8.35295 46.367C10.849 48.863 13.8122 50.843 17.0734 52.1939C20.3347 53.5447 23.83 54.24 27.36 54.24C30.8899 54.24 34.3853 53.5447 37.6465 52.1939C40.9077 50.843 43.871 48.863 46.367 46.367C48.863 43.871 50.843 40.9077 52.1939 37.6465C53.5447 34.3853 54.24 30.8899 54.24 27.36C54.24 23.83 53.5447 20.3347 52.1939 17.0734C50.843 13.8122 48.863 10.849 46.367 8.35295C43.871 5.85691 40.9077 3.87694 37.6465 2.5261C34.3853 1.17525 30.8899 0.47998 27.36 0.47998C23.83 0.47998 20.3347 1.17525 17.0734 2.5261C13.8122 3.87694 10.849 5.85691 8.35295 8.35295C5.85691 10.849 3.87694 13.8122 2.5261 17.0734C1.17525 20.3347 0.47998 23.83 0.47998 27.36ZM17.76 27.36C17.76 28.6207 18.0083 29.869 18.4907 31.0337C18.9732 32.1985 19.6803 33.2568 20.5718 34.1482C21.4632 35.0396 22.5215 35.7468 23.6862 36.2292C24.8509 36.7117 26.0993 36.96 27.36 36.96C28.6207 36.96 29.869 36.7117 31.0337 36.2292C32.1985 35.7468 33.2568 35.0396 34.1482 34.1482C35.0396 33.2568 35.7468 32.1985 36.2292 31.0337C36.7117 29.869 36.96 28.6207 36.96 27.36C36.96 26.0993 36.7117 24.8509 36.2292 23.6862C35.7468 22.5215 35.0396 21.4632 34.1482 20.5718C33.2568 19.6803 32.1985 18.9732 31.0337 18.4907C29.869 18.0083 28.6207 17.76 27.36 17.76C26.0993 17.76 24.8509 18.0083 23.6862 18.4907C22.5215 18.9732 21.4632 19.6803 20.5718 20.5718C19.6803 21.4632 18.9732 22.5215 18.4907 23.6862C18.0083 24.8509 17.76 26.0993 17.76 27.36Z"
            fill="white" />
    </mask>
    <g mask="url(#mask0_0_1)">
        <path d="M59.3599 -4.64014H-4.64014V59.3599H59.3599V-4.64014Z" fill="#F4C79A" />
        <path
            d="M-2.08008 25.4396C5.59992 20.9596 9.43992 31.8396 16.4799 27.3596C21.5999 24.1596 26.7199 33.1196 33.1199 27.3596C39.5199 23.5196 44.6399 31.8396 56.7999 25.4396V-3.36035H-2.08008V25.4396Z"
            fill="#F56A1E" />
    </g>
    <path opacity="0.6"
        d="M27.36 54.24C42.2054 54.24 54.24 42.2054 54.24 27.36C54.24 12.5146 42.2054 0.47998 27.36 0.47998C12.5146 0.47998 0.47998 12.5146 0.47998 27.36C0.47998 42.2054 12.5146 54.24 27.36 54.24Z"
        stroke="#E39A66" stroke-width="0.96" />
    <path opacity="0.5"
        d="M27.36 36.9598C32.6619 36.9598 36.96 32.6617 36.96 27.3598C36.96 22.0578 32.6619 17.7598 27.36 17.7598C22.0581 17.7598 17.76 22.0578 17.76 27.3598C17.76 32.6617 22.0581 36.9598 27.36 36.9598Z"
        stroke="#E39A66" stroke-width="0.768" />
    <mask id="path-6-outside-1_0_1" maskUnits="userSpaceOnUse" x="55.48" y="9.47998" width="54"
        height="43" fill="black">
        <rect fill="white" x="55.48" y="9.47998" width="54" height="43" />
        <path
            d="M61.48 43.24C59.9066 43.24 58.68 42.8266 57.8 42C56.92 41.1466 56.48 40.0266 56.48 38.64C56.48 37.2266 56.9333 36.08 57.84 35.2C58.7466 34.32 59.96 33.88 61.48 33.88C62.9733 33.88 64.16 34.32 65.04 35.2C65.9466 36.0533 66.4 37.1866 66.4 38.6C66.4 39.9866 65.9733 41.1066 65.12 41.96C64.2666 42.8133 63.0533 43.24 61.48 43.24ZM82.595 42.48C81.1283 42.48 79.9016 42.0266 78.915 41.12C77.955 40.2133 77.3416 39.04 77.075 37.6H76.355V46.8C76.355 47.8933 76.0483 48.8133 75.435 49.56C74.8216 50.3333 73.8883 50.72 72.635 50.72C71.435 50.72 70.5016 50.3333 69.835 49.56C69.195 48.8133 68.875 47.8666 68.875 46.72V31.76C68.875 30.4266 68.8216 29.3066 68.715 28.4C68.635 27.4666 68.555 26.6266 68.475 25.88C68.3683 24.76 68.595 23.8133 69.155 23.04C69.715 22.24 70.6216 21.76 71.875 21.6C73.5016 21.3866 74.6483 21.68 75.315 22.48C76.0083 23.2533 76.355 24.4666 76.355 26.12V28.04L76.515 28.08C76.6483 27.04 76.955 26.0266 77.435 25.04C77.9416 24.0266 78.6483 23.2 79.555 22.56C80.4616 21.8933 81.6083 21.56 82.995 21.56C85.315 21.56 87.035 22.4933 88.155 24.36C89.3016 26.2 89.875 28.6666 89.875 31.76C89.875 38.9066 87.4483 42.48 82.595 42.48ZM76.195 31.68C76.195 32.1066 76.2483 32.44 76.355 32.68C76.515 33.1866 76.8483 33.56 77.355 33.8C77.8883 34.0133 78.675 34.12 79.715 34.12C81.0483 34.12 81.955 33.92 82.435 33.52C82.9416 33.12 83.195 32.5066 83.195 31.68C83.195 30.8266 82.955 30.2133 82.475 29.84C81.995 29.44 81.0883 29.24 79.755 29.24C78.6883 29.24 77.8883 29.36 77.355 29.6C76.8483 29.8133 76.515 30.1733 76.355 30.68C76.2483 30.92 76.195 31.2533 76.195 31.68ZM98.4325 42.48C97.3125 42.48 96.3925 42.1333 95.6725 41.44C94.9791 40.72 94.6325 39.8266 94.6325 38.76V29.84C93.9391 30 93.3125 29.9066 92.7525 29.56C92.1925 29.2133 91.7391 28.6933 91.3925 28C91.0725 27.3066 90.9125 26.5466 90.9125 25.72C90.9125 24.8933 91.0858 24.1333 91.4325 23.44C91.7791 22.72 92.2325 22.1733 92.7925 21.8C93.3791 21.4266 94.0191 21.3466 94.7125 21.56C94.8458 19.5866 95.1658 17.84 95.6725 16.32C96.1791 14.7733 96.9525 13.56 97.9925 12.68C99.0591 11.8 100.446 11.36 102.152 11.36C103.619 11.36 104.792 11.6666 105.672 12.28C106.552 12.8666 107.166 13.6 107.512 14.48C107.886 15.36 108.006 16.2533 107.872 17.16C107.739 18.04 107.379 18.8133 106.792 19.48C106.206 20.12 105.339 20.44 104.192 20.44C103.392 20.44 102.726 20.28 102.192 19.96C101.659 19.64 101.206 19.2533 100.832 18.8C100.486 18.32 100.179 17.8666 99.9125 17.44C99.2458 16.3733 98.5658 16.0133 97.8725 16.36C97.5258 16.5466 97.3391 16.8533 97.3125 17.28C97.2858 17.68 97.4191 18.1466 97.7125 18.68L98.5925 20.2C99.0458 20.9466 99.5258 21.44 100.032 21.68C100.539 21.8933 101.179 21.9466 101.952 21.84L103.872 21.56C105.099 21.3733 106.099 21.7066 106.872 22.56C107.646 23.4133 108.032 24.4666 108.032 25.72C108.032 27.0266 107.632 28.08 106.832 28.88C106.059 29.6533 105.099 29.9733 103.952 29.84L102.272 29.64V38.76C102.272 39.8266 101.926 40.72 101.232 41.44C100.539 42.1333 99.6058 42.48 98.4325 42.48Z" />
    </mask>
    <path
        d="M61.48 43.24C59.9066 43.24 58.68 42.8266 57.8 42C56.92 41.1466 56.48 40.0266 56.48 38.64C56.48 37.2266 56.9333 36.08 57.84 35.2C58.7466 34.32 59.96 33.88 61.48 33.88C62.9733 33.88 64.16 34.32 65.04 35.2C65.9466 36.0533 66.4 37.1866 66.4 38.6C66.4 39.9866 65.9733 41.1066 65.12 41.96C64.2666 42.8133 63.0533 43.24 61.48 43.24ZM82.595 42.48C81.1283 42.48 79.9016 42.0266 78.915 41.12C77.955 40.2133 77.3416 39.04 77.075 37.6H76.355V46.8C76.355 47.8933 76.0483 48.8133 75.435 49.56C74.8216 50.3333 73.8883 50.72 72.635 50.72C71.435 50.72 70.5016 50.3333 69.835 49.56C69.195 48.8133 68.875 47.8666 68.875 46.72V31.76C68.875 30.4266 68.8216 29.3066 68.715 28.4C68.635 27.4666 68.555 26.6266 68.475 25.88C68.3683 24.76 68.595 23.8133 69.155 23.04C69.715 22.24 70.6216 21.76 71.875 21.6C73.5016 21.3866 74.6483 21.68 75.315 22.48C76.0083 23.2533 76.355 24.4666 76.355 26.12V28.04L76.515 28.08C76.6483 27.04 76.955 26.0266 77.435 25.04C77.9416 24.0266 78.6483 23.2 79.555 22.56C80.4616 21.8933 81.6083 21.56 82.995 21.56C85.315 21.56 87.035 22.4933 88.155 24.36C89.3016 26.2 89.875 28.6666 89.875 31.76C89.875 38.9066 87.4483 42.48 82.595 42.48ZM76.195 31.68C76.195 32.1066 76.2483 32.44 76.355 32.68C76.515 33.1866 76.8483 33.56 77.355 33.8C77.8883 34.0133 78.675 34.12 79.715 34.12C81.0483 34.12 81.955 33.92 82.435 33.52C82.9416 33.12 83.195 32.5066 83.195 31.68C83.195 30.8266 82.955 30.2133 82.475 29.84C81.995 29.44 81.0883 29.24 79.755 29.24C78.6883 29.24 77.8883 29.36 77.355 29.6C76.8483 29.8133 76.515 30.1733 76.355 30.68C76.2483 30.92 76.195 31.2533 76.195 31.68ZM98.4325 42.48C97.3125 42.48 96.3925 42.1333 95.6725 41.44C94.9791 40.72 94.6325 39.8266 94.6325 38.76V29.84C93.9391 30 93.3125 29.9066 92.7525 29.56C92.1925 29.2133 91.7391 28.6933 91.3925 28C91.0725 27.3066 90.9125 26.5466 90.9125 25.72C90.9125 24.8933 91.0858 24.1333 91.4325 23.44C91.7791 22.72 92.2325 22.1733 92.7925 21.8C93.3791 21.4266 94.0191 21.3466 94.7125 21.56C94.8458 19.5866 95.1658 17.84 95.6725 16.32C96.1791 14.7733 96.9525 13.56 97.9925 12.68C99.0591 11.8 100.446 11.36 102.152 11.36C103.619 11.36 104.792 11.6666 105.672 12.28C106.552 12.8666 107.166 13.6 107.512 14.48C107.886 15.36 108.006 16.2533 107.872 17.16C107.739 18.04 107.379 18.8133 106.792 19.48C106.206 20.12 105.339 20.44 104.192 20.44C103.392 20.44 102.726 20.28 102.192 19.96C101.659 19.64 101.206 19.2533 100.832 18.8C100.486 18.32 100.179 17.8666 99.9125 17.44C99.2458 16.3733 98.5658 16.0133 97.8725 16.36C97.5258 16.5466 97.3391 16.8533 97.3125 17.28C97.2858 17.68 97.4191 18.1466 97.7125 18.68L98.5925 20.2C99.0458 20.9466 99.5258 21.44 100.032 21.68C100.539 21.8933 101.179 21.9466 101.952 21.84L103.872 21.56C105.099 21.3733 106.099 21.7066 106.872 22.56C107.646 23.4133 108.032 24.4666 108.032 25.72C108.032 27.0266 107.632 28.08 106.832 28.88C106.059 29.6533 105.099 29.9733 103.952 29.84L102.272 29.64V38.76C102.272 39.8266 101.926 40.72 101.232 41.44C100.539 42.1333 99.6058 42.48 98.4325 42.48Z"
        fill="#F4C79A" />
    <path
        d="M57.8 42L57.1038 42.7179L57.1095 42.7234L57.1153 42.7288L57.8 42ZM57.84 35.2L57.1435 34.4824H57.1435L57.84 35.2ZM65.04 35.2L64.3329 35.9071L64.3436 35.9178L64.3546 35.9282L65.04 35.2ZM65.12 41.96L65.8271 42.6671V42.6671L65.12 41.96ZM61.48 43.24V42.24C60.0815 42.24 59.1284 41.8759 58.4847 41.2711L57.8 42L57.1153 42.7288C58.2316 43.7774 59.7318 44.24 61.48 44.24V43.24ZM57.8 42L58.4961 41.2821C57.8366 40.6425 57.48 39.795 57.48 38.64H56.48H55.48C55.48 40.2583 56.0034 41.6508 57.1038 42.7179L57.8 42ZM56.48 38.64H57.48C57.48 37.4618 57.8477 36.586 58.5365 35.9176L57.84 35.2L57.1435 34.4824C56.0189 35.5739 55.48 36.9915 55.48 38.64H56.48ZM57.84 35.2L58.5365 35.9176C59.2197 35.2544 60.1638 34.88 61.48 34.88V33.88V32.88C59.7561 32.88 58.2736 33.3856 57.1435 34.4824L57.84 35.2ZM61.48 33.88V34.88C62.7649 34.88 63.6771 35.2513 64.3329 35.9071L65.04 35.2L65.7471 34.4929C64.6429 33.3887 63.1818 32.88 61.48 32.88V33.88ZM65.04 35.2L64.3546 35.9282C65.0325 36.5662 65.4 37.4214 65.4 38.6H66.4H67.4C67.4 36.9519 66.8608 35.5404 65.7253 34.4718L65.04 35.2ZM66.4 38.6H65.4C65.4 39.7643 65.0504 40.6154 64.4129 41.2529L65.12 41.96L65.8271 42.6671C66.8962 41.5979 67.4 40.209 67.4 38.6H66.4ZM65.12 41.96L64.4129 41.2529C63.7991 41.8667 62.872 42.24 61.48 42.24V43.24V44.24C63.2347 44.24 64.7342 43.7599 65.8271 42.6671L65.12 41.96ZM78.915 41.12L78.2283 41.8471L78.2384 41.8563L78.915 41.12ZM77.075 37.6L78.0583 37.4179L77.9068 36.6H77.075V37.6ZM76.355 37.6V36.6H75.355V37.6H76.355ZM75.435 49.56L74.6623 48.9252L74.6568 48.9319L74.6515 48.9386L75.435 49.56ZM69.835 49.56L69.0757 50.2108L69.0776 50.2129L69.835 49.56ZM68.715 28.4L67.7186 28.4854L67.72 28.5011L67.7218 28.5168L68.715 28.4ZM68.475 25.88L67.4794 25.9748L67.4807 25.9865L68.475 25.88ZM69.155 23.04L69.9649 23.6265L69.9696 23.62L69.9742 23.6134L69.155 23.04ZM71.875 21.6L72.0016 22.5919L72.005 22.5915L71.875 21.6ZM75.315 22.48L74.5468 23.1202L74.5583 23.1341L74.5704 23.1475L75.315 22.48ZM76.355 28.04H75.355V28.8208L76.1124 29.0101L76.355 28.04ZM76.515 28.08L76.2724 29.0501L77.3638 29.323L77.5069 28.2071L76.515 28.08ZM77.435 25.04L76.5405 24.5927L76.5357 24.6025L77.435 25.04ZM79.555 22.56L80.1317 23.3769L80.1396 23.3714L80.1474 23.3656L79.555 22.56ZM88.155 24.36L87.2975 24.8745L87.3018 24.8817L87.3063 24.8889L88.155 24.36ZM76.355 32.68L77.3086 32.3788L77.2916 32.3252L77.2688 32.2738L76.355 32.68ZM77.355 33.8L76.9269 34.7037L76.9549 34.717L76.9836 34.7285L77.355 33.8ZM82.435 33.52L81.8153 32.7351L81.805 32.7433L81.7948 32.7518L82.435 33.52ZM82.475 29.84L81.8348 30.6082L81.8477 30.619L81.861 30.6293L82.475 29.84ZM77.355 29.6L77.743 30.5216L77.7542 30.5169L77.7653 30.5119L77.355 29.6ZM76.355 30.68L77.2688 31.0861L77.2916 31.0347L77.3086 30.9811L76.355 30.68ZM82.595 42.48V41.48C81.3532 41.48 80.3756 41.1041 79.5916 40.3837L78.915 41.12L78.2384 41.8563C79.4277 42.9492 80.9034 43.48 82.595 43.48V42.48ZM78.915 41.12L79.6016 40.393C78.8125 39.6477 78.2907 38.6733 78.0583 37.4179L77.075 37.6L76.0917 37.7821C76.3926 39.4067 77.0974 40.7789 78.2284 41.847L78.915 41.12ZM77.075 37.6V36.6H76.355V37.6V38.6H77.075V37.6ZM76.355 37.6H75.355V46.8H76.355H77.355V37.6H76.355ZM76.355 46.8H75.355C75.355 47.694 75.1094 48.3809 74.6623 48.9252L75.435 49.56L76.2077 50.1947C76.9872 49.2457 77.355 48.0926 77.355 46.8H76.355ZM75.435 49.56L74.6515 48.9386C74.2775 49.4102 73.673 49.72 72.635 49.72V50.72V51.72C74.1036 51.72 75.3658 51.2565 76.2185 50.1814L75.435 49.56ZM72.635 50.72V49.72C71.6696 49.72 71.0352 49.4207 70.5924 48.907L69.835 49.56L69.0776 50.2129C69.9681 51.2459 71.2003 51.72 72.635 51.72V50.72ZM69.835 49.56L70.5942 48.9092C70.1348 48.3732 69.875 47.6698 69.875 46.72H68.875H67.875C67.875 48.0635 68.2552 49.2534 69.0757 50.2108L69.835 49.56ZM68.875 46.72H69.875V31.76H68.875H67.875V46.72H68.875ZM68.875 31.76H69.875C69.875 30.4036 69.8209 29.2418 69.7081 28.2831L68.715 28.4L67.7218 28.5168C67.8224 29.3715 67.875 30.4497 67.875 31.76H68.875ZM68.715 28.4L69.7113 28.3146C69.6309 27.3758 69.5502 26.5286 69.4693 25.7734L68.475 25.88L67.4807 25.9865C67.5598 26.7247 67.6391 27.5575 67.7186 28.4854L68.715 28.4ZM68.475 25.88L69.4705 25.7852C69.3825 24.8617 69.5723 24.1687 69.9649 23.6265L69.155 23.04L68.345 22.4535C67.6176 23.458 67.3541 24.6583 67.4795 25.9748L68.475 25.88ZM69.155 23.04L69.9742 23.6134C70.3283 23.1076 70.9407 22.7274 72.0016 22.5919L71.875 21.6L71.7483 20.608C70.3026 20.7926 69.1016 21.3724 68.3357 22.4665L69.155 23.04ZM71.875 21.6L72.005 22.5915C73.4966 22.3959 74.2052 22.7103 74.5468 23.1202L75.315 22.48L76.0832 21.8398C75.0914 20.6496 73.5067 20.3774 71.7449 20.6085L71.875 21.6ZM75.315 22.48L74.5704 23.1475C75.0258 23.6554 75.355 24.5746 75.355 26.12H76.355H77.355C77.355 24.3587 76.9909 22.8512 76.0596 21.8124L75.315 22.48ZM76.355 26.12H75.355V28.04H76.355H77.355V26.12H76.355ZM76.355 28.04L76.1124 29.0101L76.2724 29.0501L76.515 28.08L76.7575 27.1098L76.5975 27.0698L76.355 28.04ZM76.515 28.08L77.5069 28.2071C77.6257 27.2799 77.8995 26.371 78.3342 25.4774L77.435 25.04L76.5357 24.6025C76.0104 25.6823 75.6709 26.8001 75.5231 27.9528L76.515 28.08ZM77.435 25.04L78.3294 25.4872C78.7639 24.6182 79.3627 23.9198 80.1317 23.3769L79.555 22.56L78.9783 21.743C77.9339 22.4802 77.1194 23.4351 76.5406 24.5928L77.435 25.04ZM79.555 22.56L80.1474 23.3656C80.8458 22.8521 81.7711 22.56 82.995 22.56V21.56V20.56C81.4455 20.56 80.0775 20.9345 78.9626 21.7543L79.555 22.56ZM82.995 21.56V22.56C84.9918 22.56 86.3722 23.3323 87.2975 24.8745L88.155 24.36L89.0125 23.8455C87.6978 21.6543 85.6382 20.56 82.995 20.56V21.56ZM88.155 24.36L87.3063 24.8889C88.3204 26.5162 88.875 28.7778 88.875 31.76H89.875H90.875C90.875 28.5555 90.2828 25.8837 89.0037 23.8311L88.155 24.36ZM89.875 31.76H88.875C88.875 35.2514 88.2765 37.6937 87.2277 39.2382C86.2259 40.7134 84.7382 41.48 82.595 41.48V42.48V43.48C85.3051 43.48 87.4574 42.4599 88.8823 40.3618C90.2601 38.3329 90.875 35.4152 90.875 31.76H89.875ZM76.195 31.68H75.195C75.195 32.1696 75.2531 32.6629 75.4412 33.0861L76.355 32.68L77.2688 32.2738C77.2436 32.2171 77.195 32.0436 77.195 31.68H76.195ZM76.355 32.68L75.4014 32.9811C75.6502 33.769 76.1845 34.352 76.9269 34.7037L77.355 33.8L77.7831 32.8962C77.5121 32.7679 77.3798 32.6043 77.3086 32.3788L76.355 32.68ZM77.355 33.8L76.9836 34.7285C77.6949 35.013 78.6339 35.12 79.715 35.12V34.12V33.12C78.7161 33.12 78.0817 33.0137 77.7264 32.8715L77.355 33.8ZM79.715 34.12V35.12C80.4256 35.12 81.0631 35.0672 81.6104 34.9465C82.15 34.8275 82.6671 34.6283 83.0752 34.2882L82.435 33.52L81.7948 32.7518C81.7229 32.8117 81.5466 32.9125 81.1796 32.9935C80.8202 33.0727 80.3377 33.12 79.715 33.12V34.12ZM82.435 33.52L83.0546 34.3049C83.8665 33.6639 84.195 32.7191 84.195 31.68H83.195H82.195C82.195 32.2942 82.0168 32.576 81.8153 32.7351L82.435 33.52ZM83.195 31.68H84.195C84.195 30.6496 83.9003 29.6817 83.0889 29.0506L82.475 29.84L81.861 30.6293C82.0096 30.7449 82.195 31.0037 82.195 31.68H83.195ZM82.475 29.84L83.1152 29.0718C82.7071 28.7317 82.19 28.5325 81.6504 28.4135C81.1031 28.2927 80.4656 28.24 79.755 28.24V29.24V30.24C80.3777 30.24 80.8602 30.2872 81.2196 30.3665C81.5866 30.4475 81.7629 30.5483 81.8348 30.6082L82.475 29.84ZM79.755 29.24V28.24C78.6445 28.24 77.6734 28.3601 76.9446 28.6881L77.355 29.6L77.7653 30.5119C78.1033 30.3598 78.7321 30.24 79.755 30.24V29.24ZM77.355 29.6L76.9669 28.6783C76.2006 29.001 75.6532 29.5815 75.4014 30.3788L76.355 30.68L77.3086 30.9811C77.3768 30.7652 77.496 30.6256 77.743 30.5216L77.355 29.6ZM76.355 30.68L75.4412 30.2738C75.2531 30.6971 75.195 31.1903 75.195 31.68H76.195H77.195C77.195 31.3163 77.2436 31.1429 77.2688 31.0861L76.355 30.68ZM95.6725 41.44L94.9522 42.1336L94.9652 42.1472L94.9788 42.1603L95.6725 41.44ZM94.6325 29.84H95.6325V28.5829L94.4076 28.8656L94.6325 29.84ZM92.7525 29.56L93.2788 28.7097V28.7097L92.7525 29.56ZM91.3925 28L90.4845 28.419L90.4911 28.4332L90.4981 28.4472L91.3925 28ZM91.4325 23.44L92.3269 23.8872L92.3302 23.8805L92.3335 23.8738L91.4325 23.44ZM92.7925 21.8L92.2556 20.9563L92.2466 20.962L92.2378 20.9679L92.7925 21.8ZM94.7125 21.56L94.4184 22.5158L95.6251 22.8871L95.7102 21.6274L94.7125 21.56ZM95.6725 16.32L96.6212 16.6362L96.6228 16.6313L95.6725 16.32ZM97.9925 12.68L97.356 11.9085L97.3465 11.9166L97.9925 12.68ZM105.672 12.28L105.101 13.1004L105.109 13.1063L105.118 13.112L105.672 12.28ZM107.512 14.48L106.582 14.8465L106.587 14.8586L106.592 14.8705L107.512 14.48ZM107.872 17.16L108.861 17.3098L108.862 17.3055L107.872 17.16ZM106.792 19.48L107.53 20.1557L107.536 20.1482L107.543 20.1406L106.792 19.48ZM102.192 19.96L102.707 19.1025V19.1025L102.192 19.96ZM100.832 18.8L100.022 19.3855L100.04 19.4112L100.061 19.4357L100.832 18.8ZM99.9125 17.44L100.76 16.91V16.91L99.9125 17.44ZM97.8725 16.36L97.4253 15.4655L97.4117 15.4723L97.3984 15.4795L97.8725 16.36ZM97.3125 17.28L98.3103 17.3465L98.3105 17.3424L97.3125 17.28ZM97.7125 18.68L96.8363 19.1619L96.8416 19.1715L96.8471 19.181L97.7125 18.68ZM98.5925 20.2L97.7271 20.701L97.7323 20.71L97.7377 20.719L98.5925 20.2ZM100.032 21.68L99.6044 22.5837L99.6242 22.5931L99.6444 22.6016L100.032 21.68ZM101.952 21.84L102.089 22.8306L102.097 22.8295L101.952 21.84ZM103.872 21.56L104.017 22.5495L104.023 22.5486L103.872 21.56ZM106.872 22.56L106.131 23.2315V23.2315L106.872 22.56ZM106.832 28.88L107.54 29.5871V29.5871L106.832 28.88ZM103.952 29.84L103.834 30.833L103.837 30.8333L103.952 29.84ZM102.272 29.64L102.391 28.647L101.272 28.5139V29.64H102.272ZM101.232 41.44L101.94 42.1471L101.946 42.1404L101.953 42.1336L101.232 41.44ZM98.4325 42.48V41.48C97.5373 41.48 96.8767 41.2114 96.3661 40.7197L95.6725 41.44L94.9788 42.1603C95.9082 43.0553 97.0877 43.48 98.4325 43.48V42.48ZM95.6725 41.44L96.3928 40.7463C95.8917 40.226 95.6325 39.5871 95.6325 38.76H94.6325H93.6325C93.6325 40.0662 94.0665 41.2139 94.9522 42.1336L95.6725 41.44ZM94.6325 38.76H95.6325V29.84H94.6325H93.6325V38.76H94.6325ZM94.6325 29.84L94.4076 28.8656C93.9485 28.9715 93.5955 28.9057 93.2788 28.7097L92.7525 29.56L92.2261 30.4102C93.0295 30.9076 93.9298 31.0284 94.8573 30.8144L94.6325 29.84ZM92.7525 29.56L93.2788 28.7097C92.9026 28.4768 92.5655 28.11 92.2869 27.5528L91.3925 28L90.4981 28.4472C90.9128 29.2767 91.4824 29.9498 92.2261 30.4102L92.7525 29.56ZM91.3925 28L92.3004 27.5809C92.046 27.0295 91.9125 26.4141 91.9125 25.72H90.9125H89.9125C89.9125 26.6792 90.099 27.5837 90.4845 28.419L91.3925 28ZM90.9125 25.72H91.9125C91.9125 25.038 92.0542 24.4325 92.3269 23.8872L91.4325 23.44L90.5381 22.9928C90.1174 23.8341 89.9125 24.7486 89.9125 25.72H90.9125ZM91.4325 23.44L92.3335 23.8738C92.6171 23.2847 92.962 22.8888 93.3472 22.632L92.7925 21.8L92.2378 20.9679C91.503 21.4578 90.9412 22.1552 90.5315 23.0062L91.4325 23.44ZM92.7925 21.8L93.3294 22.6436C93.6569 22.4352 93.9913 22.3843 94.4184 22.5158L94.7125 21.56L95.0066 20.6042C94.047 20.309 93.1014 20.4181 92.2556 20.9563L92.7925 21.8ZM94.7125 21.56L95.7102 21.6274C95.8391 19.7198 96.1467 18.0595 96.6212 16.6362L95.6725 16.32L94.7238 16.0038C94.1849 17.6205 93.8525 19.4535 93.7148 21.4926L94.7125 21.56ZM95.6725 16.32L96.6228 16.6313C97.0831 15.2261 97.7652 14.1823 98.6384 13.4434L97.9925 12.68L97.3465 11.9166C96.1398 12.9377 95.2752 14.3206 94.7222 16.0087L95.6725 16.32ZM97.9925 12.68L98.6289 13.4514C99.4774 12.7513 100.622 12.36 102.152 12.36V11.36V10.36C100.27 10.36 98.6409 10.8487 97.3561 11.9086L97.9925 12.68ZM102.152 11.36V12.36C103.488 12.36 104.44 12.6398 105.101 13.1004L105.672 12.28L106.244 11.4596C105.145 10.6934 103.75 10.36 102.152 10.36V11.36ZM105.672 12.28L105.118 13.112C105.849 13.5994 106.319 14.1785 106.582 14.8465L107.512 14.48L108.443 14.1135C108.013 13.0215 107.256 12.1339 106.227 11.4479L105.672 12.28ZM107.512 14.48L106.592 14.8705C106.897 15.5892 106.989 16.2975 106.883 17.0145L107.872 17.16L108.862 17.3055C109.023 16.2092 108.875 15.1308 108.433 14.0894L107.512 14.48ZM107.872 17.16L106.884 17.0102C106.779 17.7011 106.501 18.297 106.042 18.8193L106.792 19.48L107.543 20.1406C108.257 19.3297 108.699 18.3789 108.861 17.3098L107.872 17.16ZM106.792 19.48L106.055 18.8043C105.714 19.177 105.153 19.44 104.192 19.44V20.44V21.44C105.525 21.44 106.698 21.063 107.53 20.1557L106.792 19.48ZM104.192 20.44V19.44C103.523 19.44 103.046 19.3061 102.707 19.1025L102.192 19.96L101.678 20.8175C102.405 21.2538 103.262 21.44 104.192 21.44V20.44ZM102.192 19.96L102.707 19.1025C102.266 18.8377 101.901 18.5244 101.604 18.1643L100.832 18.8L100.061 19.4357C100.511 19.9822 101.053 20.4423 101.678 20.8175L102.192 19.96ZM100.832 18.8L101.643 18.2145C101.307 17.7495 101.013 17.3148 100.76 16.91L99.9125 17.44L99.0645 17.97C99.3448 18.4185 99.6643 18.8905 100.022 19.3855L100.832 18.8ZM99.9125 17.44L100.76 16.91C100.387 16.3121 99.9354 15.7853 99.3704 15.4862C98.7424 15.1537 98.0582 15.1491 97.4253 15.4655L97.8725 16.36L98.3197 17.2544C98.346 17.2412 98.3629 17.2361 98.3711 17.2341C98.3752 17.233 98.3778 17.2327 98.3789 17.2325C98.3795 17.2325 98.3799 17.2324 98.38 17.2324C98.3802 17.2324 98.3803 17.2324 98.3803 17.2324C98.3803 17.2324 98.3803 17.2324 98.3804 17.2324C98.3805 17.2324 98.3808 17.2325 98.3812 17.2325C98.382 17.2326 98.3841 17.233 98.3877 17.2339C98.3947 17.2358 98.4102 17.2408 98.4346 17.2538C98.5496 17.3146 98.7715 17.5012 99.0645 17.97L99.9125 17.44ZM97.8725 16.36L97.3984 15.4795C96.7174 15.8462 96.3604 16.4815 96.3144 17.2176L97.3125 17.28L98.3105 17.3424C98.3157 17.2602 98.3324 17.2405 98.3267 17.2499C98.3259 17.2512 98.3248 17.2528 98.3235 17.2543C98.3223 17.2559 98.3214 17.2567 98.3215 17.2566C98.3216 17.2565 98.3233 17.255 98.327 17.2523C98.3308 17.2496 98.3371 17.2456 98.3466 17.2404L97.8725 16.36ZM97.3125 17.28L96.3147 17.2135C96.2703 17.8789 96.4952 18.5418 96.8363 19.1619L97.7125 18.68L98.5887 18.1981C98.3431 17.7515 98.3013 17.4811 98.3103 17.3465L97.3125 17.28ZM97.7125 18.68L96.8471 19.181L97.7271 20.701L98.5925 20.2L99.4579 19.6989L98.5779 18.1789L97.7125 18.68ZM98.5925 20.2L97.7377 20.719C98.2403 21.5467 98.8477 22.2253 99.6044 22.5837L100.032 21.68L100.461 20.7762C100.204 20.6547 99.8514 20.3466 99.4473 19.681L98.5925 20.2ZM100.032 21.68L99.6444 22.6016C100.372 22.908 101.209 22.952 102.089 22.8306L101.952 21.84L101.816 20.8494C101.15 20.9412 100.706 20.8787 100.421 20.7583L100.032 21.68ZM101.952 21.84L102.097 22.8295L104.017 22.5495L103.872 21.56L103.728 20.5704L101.808 20.8504L101.952 21.84ZM103.872 21.56L104.023 22.5486C104.949 22.4077 105.603 22.6487 106.131 23.2315L106.872 22.56L107.613 21.8885C106.595 20.7646 105.25 20.3389 103.722 20.5714L103.872 21.56ZM106.872 22.56L106.131 23.2315C106.723 23.884 107.032 24.6911 107.032 25.72H108.032H109.032C109.032 24.2422 108.569 22.9426 107.613 21.8885L106.872 22.56ZM108.032 25.72H107.032C107.032 26.8059 106.709 27.5897 106.125 28.1729L106.832 28.88L107.54 29.5871C108.556 28.5703 109.032 27.2474 109.032 25.72H108.032ZM106.832 28.88L106.125 28.1729C105.582 28.7166 104.931 28.947 104.068 28.8467L103.952 29.84L103.837 30.8333C105.268 30.9996 106.537 30.59 107.54 29.5871L106.832 28.88ZM103.952 29.84L104.071 28.847L102.391 28.647L102.272 29.64L102.154 30.633L103.834 30.833L103.952 29.84ZM102.272 29.64H101.272V38.76H102.272H103.272V29.64H102.272ZM102.272 38.76H101.272C101.272 39.5871 101.013 40.226 100.512 40.7463L101.232 41.44L101.953 42.1336C102.838 41.2139 103.272 40.0662 103.272 38.76H102.272ZM101.232 41.44L100.525 40.7329C100.056 41.2025 99.3965 41.48 98.4325 41.48V42.48V43.48C99.8152 43.48 101.023 43.0641 101.94 42.1471L101.232 41.44Z"
        fill="#E39A66" mask="url(#path-6-outside-1_0_1)" />
</svg>